<svg width="321" height="248" viewBox="0 0 321 248" fill="none" xmlns="http://www.w3.org/2000/svg">
<path d="M0 0V248H321V0H0ZM2.12695 245.875V24.4995H318.873V245.875H2.12695Z" fill="#C5EBF5"/>
<path d="M12 16C14.2091 16 16 14.2091 16 12C16 9.79086 14.2091 8 12 8C9.79087 8 8 9.79086 8 12C8 14.2091 9.79087 16 12 16Z" fill="white"/>
<path d="M26 16C28.2091 16 30 14.2091 30 12C30 9.79086 28.2091 8 26 8C23.7909 8 22 9.79086 22 12C22 14.2091 23.7909 16 26 16Z" fill="white"/>
<path d="M40 16C42.2091 16 44 14.2091 44 12C44 9.79086 42.2091 8 40 8C37.7909 8 36 9.79086 36 12C36 14.2091 37.7909 16 40 16Z" fill="white"/>
<rect x="33" y="74" width="248" height="27" fill="#E2F5FA"/>
<rect x="229" y="215" width="53" height="18" fill="#6ECCE5"/>
<rect x="170" y="215" width="53" height="18" fill="#6ECCE5"/>
<rect x="33" y="110" width="248" height="26.7463" fill="#E2F5FA"/>
<rect x="33" y="144" width="248" height="26.7463" fill="#E2F5FA"/>
<rect x="33" y="179.329" width="248" height="26.7463" fill="#E2F5FA"/>
<rect x="44" y="186" width="120" height="13" fill="#C5EBF5"/>
<rect x="44" y="151" width="120" height="13" fill="#C5EBF5"/>
<rect x="44" y="118" width="120" height="13" fill="#C5EBF5"/>
<rect x="189" y="81" width="78" height="13" fill="#C5EBF5"/>
<rect x="44" y="81" width="78" height="13" fill="#C5EBF5"/>
<rect x="33" y="45" width="151" height="19" fill="#6ECCE5"/>
<path d="M245.75 183.5C241.179 183.5 237.5 187.321 237.5 192C237.5 196.679 241.179 200.5 245.75 200.5H261.25C265.821 200.5 269.5 196.679 269.5 192C269.5 187.321 265.821 183.5 261.25 183.5H245.75Z" fill="#C5EBF5" stroke="white"/>
<path d="M245.75 114.5C241.179 114.5 237.5 118.321 237.5 123C237.5 127.679 241.179 131.5 245.75 131.5H261.25C265.821 131.5 269.5 127.679 269.5 123C269.5 118.321 265.821 114.5 261.25 114.5H245.75Z" fill="#C5EBF5" stroke="white"/>
<path d="M251 192C251 194.761 248.761 197 246 197C243.239 197 241 194.761 241 192C241 189.239 243.239 187 246 187C248.761 187 251 189.239 251 192Z" fill="#F6821F"/>
<path d="M251 123C251 125.761 248.761 128 246 128C243.239 128 241 125.761 241 123C241 120.239 243.239 118 246 118C248.761 118 251 120.239 251 123Z" fill="#F6821F"/>
<path d="M246.75 148.5C242.179 148.5 238.5 152.321 238.5 157C238.5 161.679 242.179 165.5 246.75 165.5H262.25C266.821 165.5 270.5 161.679 270.5 157C270.5 152.321 266.821 148.5 262.25 148.5H246.75Z" fill="#C5EBF5" stroke="white"/>
<path d="M267 157C267 159.761 264.761 162 262 162C259.239 162 257 159.761 257 157C257 154.239 259.239 152 262 152C264.761 152 267 154.239 267 157Z" fill="#0055DC"/>
<path d="M252.108 86.586L256.739 90.8994C256.808 90.9638 256.902 91 257 91C257.098 91 257.192 90.9638 257.261 90.8994L261.892 86.586C261.944 86.538 261.979 86.4769 261.993 86.4104C262.007 86.3438 262 86.2749 261.972 86.2123C261.944 86.1496 261.897 86.096 261.837 86.0582C261.776 86.0205 261.705 86.0002 261.632 86H252.369C252.296 86 252.225 86.0202 252.164 86.0579C252.103 86.0956 252.056 86.1492 252.028 86.2119C252 86.2745 251.993 86.3435 252.007 86.4101C252.021 86.4767 252.056 86.5379 252.108 86.586Z" fill="#0055DC"/>
</svg>
